<mxfile host="app.diagrams.net" modified="2024-07-11T18:58:30.740Z" agent="Mozilla/5.0 (Macintosh; Intel Mac OS X 10_15_7) AppleWebKit/605.1.15 (KHTML, like Gecko) Version/17.5 Safari/605.1.15" etag="lDDvX2N8O00Y9SZxrKWt" version="24.6.5" type="google">
  <diagram id="C5RBs43oDa-KdzZeNtuy" name="Page-1">
    <mxGraphModel grid="1" page="1" gridSize="10" guides="1" tooltips="1" connect="1" arrows="1" fold="1" pageScale="1" pageWidth="827" pageHeight="1169" math="0" shadow="0">
      <root>
        <mxCell id="WIyWlLk6GJQsqaUBKTNV-0" />
        <mxCell id="WIyWlLk6GJQsqaUBKTNV-1" parent="WIyWlLk6GJQsqaUBKTNV-0" />
        <mxCell id="z4HHx_3nLwUVMVr3qOZF-130" value="Web controllers" style="swimlane;whiteSpace=wrap;html=1;" vertex="1" parent="WIyWlLk6GJQsqaUBKTNV-1">
          <mxGeometry x="-650" y="390" width="400" height="690" as="geometry" />
        </mxCell>
        <mxCell id="z4HHx_3nLwUVMVr3qOZF-49" value="DashboardController" style="swimlane;fontStyle=2;align=center;verticalAlign=top;childLayout=stackLayout;horizontal=1;startSize=26;horizontalStack=0;resizeParent=1;resizeLast=0;collapsible=1;marginBottom=0;rounded=0;shadow=0;strokeWidth=1;" vertex="1" parent="z4HHx_3nLwUVMVr3qOZF-130">
          <mxGeometry x="120" y="200" width="160" height="138" as="geometry">
            <mxRectangle x="230" y="140" width="160" height="26" as="alternateBounds" />
          </mxGeometry>
        </mxCell>
        <mxCell id="z4HHx_3nLwUVMVr3qOZF-50" value="Name" style="text;align=left;verticalAlign=top;spacingLeft=4;spacingRight=4;overflow=hidden;rotatable=0;points=[[0,0.5],[1,0.5]];portConstraint=eastwest;" vertex="1" parent="z4HHx_3nLwUVMVr3qOZF-49">
          <mxGeometry y="26" width="160" height="26" as="geometry" />
        </mxCell>
        <mxCell id="z4HHx_3nLwUVMVr3qOZF-51" value="Phone Number" style="text;align=left;verticalAlign=top;spacingLeft=4;spacingRight=4;overflow=hidden;rotatable=0;points=[[0,0.5],[1,0.5]];portConstraint=eastwest;rounded=0;shadow=0;html=0;" vertex="1" parent="z4HHx_3nLwUVMVr3qOZF-49">
          <mxGeometry y="52" width="160" height="26" as="geometry" />
        </mxCell>
        <mxCell id="z4HHx_3nLwUVMVr3qOZF-52" value="Email Address" style="text;align=left;verticalAlign=top;spacingLeft=4;spacingRight=4;overflow=hidden;rotatable=0;points=[[0,0.5],[1,0.5]];portConstraint=eastwest;rounded=0;shadow=0;html=0;" vertex="1" parent="z4HHx_3nLwUVMVr3qOZF-49">
          <mxGeometry y="78" width="160" height="26" as="geometry" />
        </mxCell>
        <mxCell id="z4HHx_3nLwUVMVr3qOZF-53" value="" style="line;html=1;strokeWidth=1;align=left;verticalAlign=middle;spacingTop=-1;spacingLeft=3;spacingRight=3;rotatable=0;labelPosition=right;points=[];portConstraint=eastwest;" vertex="1" parent="z4HHx_3nLwUVMVr3qOZF-49">
          <mxGeometry y="104" width="160" height="8" as="geometry" />
        </mxCell>
        <mxCell id="z4HHx_3nLwUVMVr3qOZF-54" value="Purchase Parking Pass" style="text;align=left;verticalAlign=top;spacingLeft=4;spacingRight=4;overflow=hidden;rotatable=0;points=[[0,0.5],[1,0.5]];portConstraint=eastwest;" vertex="1" parent="z4HHx_3nLwUVMVr3qOZF-49">
          <mxGeometry y="112" width="160" height="26" as="geometry" />
        </mxCell>
        <mxCell id="z4HHx_3nLwUVMVr3qOZF-131" value="AuthController" style="swimlane;fontStyle=2;align=center;verticalAlign=top;childLayout=stackLayout;horizontal=1;startSize=26;horizontalStack=0;resizeParent=1;resizeLast=0;collapsible=1;marginBottom=0;rounded=0;shadow=0;strokeWidth=1;" vertex="1" parent="z4HHx_3nLwUVMVr3qOZF-130">
          <mxGeometry x="120" y="40" width="160" height="138" as="geometry">
            <mxRectangle x="230" y="140" width="160" height="26" as="alternateBounds" />
          </mxGeometry>
        </mxCell>
        <mxCell id="z4HHx_3nLwUVMVr3qOZF-132" value="Name" style="text;align=left;verticalAlign=top;spacingLeft=4;spacingRight=4;overflow=hidden;rotatable=0;points=[[0,0.5],[1,0.5]];portConstraint=eastwest;" vertex="1" parent="z4HHx_3nLwUVMVr3qOZF-131">
          <mxGeometry y="26" width="160" height="26" as="geometry" />
        </mxCell>
        <mxCell id="z4HHx_3nLwUVMVr3qOZF-133" value="Phone Number" style="text;align=left;verticalAlign=top;spacingLeft=4;spacingRight=4;overflow=hidden;rotatable=0;points=[[0,0.5],[1,0.5]];portConstraint=eastwest;rounded=0;shadow=0;html=0;" vertex="1" parent="z4HHx_3nLwUVMVr3qOZF-131">
          <mxGeometry y="52" width="160" height="26" as="geometry" />
        </mxCell>
        <mxCell id="z4HHx_3nLwUVMVr3qOZF-134" value="Email Address" style="text;align=left;verticalAlign=top;spacingLeft=4;spacingRight=4;overflow=hidden;rotatable=0;points=[[0,0.5],[1,0.5]];portConstraint=eastwest;rounded=0;shadow=0;html=0;" vertex="1" parent="z4HHx_3nLwUVMVr3qOZF-131">
          <mxGeometry y="78" width="160" height="26" as="geometry" />
        </mxCell>
        <mxCell id="z4HHx_3nLwUVMVr3qOZF-135" value="" style="line;html=1;strokeWidth=1;align=left;verticalAlign=middle;spacingTop=-1;spacingLeft=3;spacingRight=3;rotatable=0;labelPosition=right;points=[];portConstraint=eastwest;" vertex="1" parent="z4HHx_3nLwUVMVr3qOZF-131">
          <mxGeometry y="104" width="160" height="8" as="geometry" />
        </mxCell>
        <mxCell id="z4HHx_3nLwUVMVr3qOZF-136" value="Purchase Parking Pass" style="text;align=left;verticalAlign=top;spacingLeft=4;spacingRight=4;overflow=hidden;rotatable=0;points=[[0,0.5],[1,0.5]];portConstraint=eastwest;" vertex="1" parent="z4HHx_3nLwUVMVr3qOZF-131">
          <mxGeometry y="112" width="160" height="26" as="geometry" />
        </mxCell>
        <mxCell id="z4HHx_3nLwUVMVr3qOZF-143" value="HomeController" style="swimlane;fontStyle=2;align=center;verticalAlign=top;childLayout=stackLayout;horizontal=1;startSize=26;horizontalStack=0;resizeParent=1;resizeLast=0;collapsible=1;marginBottom=0;rounded=0;shadow=0;strokeWidth=1;" vertex="1" parent="z4HHx_3nLwUVMVr3qOZF-130">
          <mxGeometry x="120" y="360" width="160" height="138" as="geometry">
            <mxRectangle x="230" y="140" width="160" height="26" as="alternateBounds" />
          </mxGeometry>
        </mxCell>
        <mxCell id="z4HHx_3nLwUVMVr3qOZF-144" value="Name" style="text;align=left;verticalAlign=top;spacingLeft=4;spacingRight=4;overflow=hidden;rotatable=0;points=[[0,0.5],[1,0.5]];portConstraint=eastwest;" vertex="1" parent="z4HHx_3nLwUVMVr3qOZF-143">
          <mxGeometry y="26" width="160" height="26" as="geometry" />
        </mxCell>
        <mxCell id="z4HHx_3nLwUVMVr3qOZF-145" value="Phone Number" style="text;align=left;verticalAlign=top;spacingLeft=4;spacingRight=4;overflow=hidden;rotatable=0;points=[[0,0.5],[1,0.5]];portConstraint=eastwest;rounded=0;shadow=0;html=0;" vertex="1" parent="z4HHx_3nLwUVMVr3qOZF-143">
          <mxGeometry y="52" width="160" height="26" as="geometry" />
        </mxCell>
        <mxCell id="z4HHx_3nLwUVMVr3qOZF-146" value="Email Address" style="text;align=left;verticalAlign=top;spacingLeft=4;spacingRight=4;overflow=hidden;rotatable=0;points=[[0,0.5],[1,0.5]];portConstraint=eastwest;rounded=0;shadow=0;html=0;" vertex="1" parent="z4HHx_3nLwUVMVr3qOZF-143">
          <mxGeometry y="78" width="160" height="26" as="geometry" />
        </mxCell>
        <mxCell id="z4HHx_3nLwUVMVr3qOZF-147" value="" style="line;html=1;strokeWidth=1;align=left;verticalAlign=middle;spacingTop=-1;spacingLeft=3;spacingRight=3;rotatable=0;labelPosition=right;points=[];portConstraint=eastwest;" vertex="1" parent="z4HHx_3nLwUVMVr3qOZF-143">
          <mxGeometry y="104" width="160" height="8" as="geometry" />
        </mxCell>
        <mxCell id="z4HHx_3nLwUVMVr3qOZF-148" value="Purchase Parking Pass" style="text;align=left;verticalAlign=top;spacingLeft=4;spacingRight=4;overflow=hidden;rotatable=0;points=[[0,0.5],[1,0.5]];portConstraint=eastwest;" vertex="1" parent="z4HHx_3nLwUVMVr3qOZF-143">
          <mxGeometry y="112" width="160" height="26" as="geometry" />
        </mxCell>
        <mxCell id="z4HHx_3nLwUVMVr3qOZF-37" value="PostController" style="swimlane;fontStyle=2;align=center;verticalAlign=top;childLayout=stackLayout;horizontal=1;startSize=26;horizontalStack=0;resizeParent=1;resizeLast=0;collapsible=1;marginBottom=0;rounded=0;shadow=0;strokeWidth=1;" vertex="1" parent="z4HHx_3nLwUVMVr3qOZF-130">
          <mxGeometry x="120" y="520" width="160" height="138" as="geometry">
            <mxRectangle x="230" y="140" width="160" height="26" as="alternateBounds" />
          </mxGeometry>
        </mxCell>
        <mxCell id="z4HHx_3nLwUVMVr3qOZF-38" value="Name" style="text;align=left;verticalAlign=top;spacingLeft=4;spacingRight=4;overflow=hidden;rotatable=0;points=[[0,0.5],[1,0.5]];portConstraint=eastwest;" vertex="1" parent="z4HHx_3nLwUVMVr3qOZF-37">
          <mxGeometry y="26" width="160" height="26" as="geometry" />
        </mxCell>
        <mxCell id="z4HHx_3nLwUVMVr3qOZF-39" value="Phone Number" style="text;align=left;verticalAlign=top;spacingLeft=4;spacingRight=4;overflow=hidden;rotatable=0;points=[[0,0.5],[1,0.5]];portConstraint=eastwest;rounded=0;shadow=0;html=0;" vertex="1" parent="z4HHx_3nLwUVMVr3qOZF-37">
          <mxGeometry y="52" width="160" height="26" as="geometry" />
        </mxCell>
        <mxCell id="z4HHx_3nLwUVMVr3qOZF-40" value="Email Address" style="text;align=left;verticalAlign=top;spacingLeft=4;spacingRight=4;overflow=hidden;rotatable=0;points=[[0,0.5],[1,0.5]];portConstraint=eastwest;rounded=0;shadow=0;html=0;" vertex="1" parent="z4HHx_3nLwUVMVr3qOZF-37">
          <mxGeometry y="78" width="160" height="26" as="geometry" />
        </mxCell>
        <mxCell id="z4HHx_3nLwUVMVr3qOZF-41" value="" style="line;html=1;strokeWidth=1;align=left;verticalAlign=middle;spacingTop=-1;spacingLeft=3;spacingRight=3;rotatable=0;labelPosition=right;points=[];portConstraint=eastwest;" vertex="1" parent="z4HHx_3nLwUVMVr3qOZF-37">
          <mxGeometry y="104" width="160" height="8" as="geometry" />
        </mxCell>
        <mxCell id="z4HHx_3nLwUVMVr3qOZF-42" value="Purchase Parking Pass" style="text;align=left;verticalAlign=top;spacingLeft=4;spacingRight=4;overflow=hidden;rotatable=0;points=[[0,0.5],[1,0.5]];portConstraint=eastwest;" vertex="1" parent="z4HHx_3nLwUVMVr3qOZF-37">
          <mxGeometry y="112" width="160" height="26" as="geometry" />
        </mxCell>
        <mxCell id="sRyd3_VP2Nb4db6PmYxN-0" value="REST Controllers" style="swimlane;whiteSpace=wrap;html=1;" vertex="1" parent="WIyWlLk6GJQsqaUBKTNV-1">
          <mxGeometry x="-190" y="220" width="420" height="212" as="geometry" />
        </mxCell>
        <mxCell id="sRyd3_VP2Nb4db6PmYxN-1" value="PostRestController" style="swimlane;fontStyle=2;align=center;verticalAlign=top;childLayout=stackLayout;horizontal=1;startSize=26;horizontalStack=0;resizeParent=1;resizeLast=0;collapsible=1;marginBottom=0;rounded=0;shadow=0;strokeWidth=1;" vertex="1" parent="sRyd3_VP2Nb4db6PmYxN-0">
          <mxGeometry x="40" y="44" width="160" height="138" as="geometry">
            <mxRectangle x="230" y="140" width="160" height="26" as="alternateBounds" />
          </mxGeometry>
        </mxCell>
        <mxCell id="sRyd3_VP2Nb4db6PmYxN-2" value="Name" style="text;align=left;verticalAlign=top;spacingLeft=4;spacingRight=4;overflow=hidden;rotatable=0;points=[[0,0.5],[1,0.5]];portConstraint=eastwest;" vertex="1" parent="sRyd3_VP2Nb4db6PmYxN-1">
          <mxGeometry y="26" width="160" height="26" as="geometry" />
        </mxCell>
        <mxCell id="sRyd3_VP2Nb4db6PmYxN-3" value="Phone Number" style="text;align=left;verticalAlign=top;spacingLeft=4;spacingRight=4;overflow=hidden;rotatable=0;points=[[0,0.5],[1,0.5]];portConstraint=eastwest;rounded=0;shadow=0;html=0;" vertex="1" parent="sRyd3_VP2Nb4db6PmYxN-1">
          <mxGeometry y="52" width="160" height="26" as="geometry" />
        </mxCell>
        <mxCell id="sRyd3_VP2Nb4db6PmYxN-4" value="Email Address" style="text;align=left;verticalAlign=top;spacingLeft=4;spacingRight=4;overflow=hidden;rotatable=0;points=[[0,0.5],[1,0.5]];portConstraint=eastwest;rounded=0;shadow=0;html=0;" vertex="1" parent="sRyd3_VP2Nb4db6PmYxN-1">
          <mxGeometry y="78" width="160" height="26" as="geometry" />
        </mxCell>
        <mxCell id="sRyd3_VP2Nb4db6PmYxN-5" value="" style="line;html=1;strokeWidth=1;align=left;verticalAlign=middle;spacingTop=-1;spacingLeft=3;spacingRight=3;rotatable=0;labelPosition=right;points=[];portConstraint=eastwest;" vertex="1" parent="sRyd3_VP2Nb4db6PmYxN-1">
          <mxGeometry y="104" width="160" height="8" as="geometry" />
        </mxCell>
        <mxCell id="sRyd3_VP2Nb4db6PmYxN-6" value="Purchase Parking Pass" style="text;align=left;verticalAlign=top;spacingLeft=4;spacingRight=4;overflow=hidden;rotatable=0;points=[[0,0.5],[1,0.5]];portConstraint=eastwest;" vertex="1" parent="sRyd3_VP2Nb4db6PmYxN-1">
          <mxGeometry y="112" width="160" height="26" as="geometry" />
        </mxCell>
        <mxCell id="sRyd3_VP2Nb4db6PmYxN-7" value="UserRestController" style="swimlane;fontStyle=2;align=center;verticalAlign=top;childLayout=stackLayout;horizontal=1;startSize=26;horizontalStack=0;resizeParent=1;resizeLast=0;collapsible=1;marginBottom=0;rounded=0;shadow=0;strokeWidth=1;" vertex="1" parent="sRyd3_VP2Nb4db6PmYxN-0">
          <mxGeometry x="240" y="40" width="160" height="138" as="geometry">
            <mxRectangle x="230" y="140" width="160" height="26" as="alternateBounds" />
          </mxGeometry>
        </mxCell>
        <mxCell id="sRyd3_VP2Nb4db6PmYxN-8" value="Name" style="text;align=left;verticalAlign=top;spacingLeft=4;spacingRight=4;overflow=hidden;rotatable=0;points=[[0,0.5],[1,0.5]];portConstraint=eastwest;" vertex="1" parent="sRyd3_VP2Nb4db6PmYxN-7">
          <mxGeometry y="26" width="160" height="26" as="geometry" />
        </mxCell>
        <mxCell id="sRyd3_VP2Nb4db6PmYxN-9" value="Phone Number" style="text;align=left;verticalAlign=top;spacingLeft=4;spacingRight=4;overflow=hidden;rotatable=0;points=[[0,0.5],[1,0.5]];portConstraint=eastwest;rounded=0;shadow=0;html=0;" vertex="1" parent="sRyd3_VP2Nb4db6PmYxN-7">
          <mxGeometry y="52" width="160" height="26" as="geometry" />
        </mxCell>
        <mxCell id="sRyd3_VP2Nb4db6PmYxN-10" value="Email Address" style="text;align=left;verticalAlign=top;spacingLeft=4;spacingRight=4;overflow=hidden;rotatable=0;points=[[0,0.5],[1,0.5]];portConstraint=eastwest;rounded=0;shadow=0;html=0;" vertex="1" parent="sRyd3_VP2Nb4db6PmYxN-7">
          <mxGeometry y="78" width="160" height="26" as="geometry" />
        </mxCell>
        <mxCell id="sRyd3_VP2Nb4db6PmYxN-11" value="" style="line;html=1;strokeWidth=1;align=left;verticalAlign=middle;spacingTop=-1;spacingLeft=3;spacingRight=3;rotatable=0;labelPosition=right;points=[];portConstraint=eastwest;" vertex="1" parent="sRyd3_VP2Nb4db6PmYxN-7">
          <mxGeometry y="104" width="160" height="8" as="geometry" />
        </mxCell>
        <mxCell id="sRyd3_VP2Nb4db6PmYxN-12" value="Purchase Parking Pass" style="text;align=left;verticalAlign=top;spacingLeft=4;spacingRight=4;overflow=hidden;rotatable=0;points=[[0,0.5],[1,0.5]];portConstraint=eastwest;" vertex="1" parent="sRyd3_VP2Nb4db6PmYxN-7">
          <mxGeometry y="112" width="160" height="26" as="geometry" />
        </mxCell>
        <mxCell id="sRyd3_VP2Nb4db6PmYxN-31" value="Services" style="swimlane;whiteSpace=wrap;html=1;" vertex="1" parent="WIyWlLk6GJQsqaUBKTNV-1">
          <mxGeometry y="570" width="360" height="400" as="geometry" />
        </mxCell>
        <mxCell id="z4HHx_3nLwUVMVr3qOZF-0" value="UserService" style="swimlane;fontStyle=2;align=center;verticalAlign=top;childLayout=stackLayout;horizontal=1;startSize=26;horizontalStack=0;resizeParent=1;resizeLast=0;collapsible=1;marginBottom=0;rounded=0;shadow=0;strokeWidth=1;" vertex="1" parent="sRyd3_VP2Nb4db6PmYxN-31">
          <mxGeometry x="100" y="40" width="160" height="138" as="geometry">
            <mxRectangle x="230" y="140" width="160" height="26" as="alternateBounds" />
          </mxGeometry>
        </mxCell>
        <mxCell id="z4HHx_3nLwUVMVr3qOZF-1" value="Name" style="text;align=left;verticalAlign=top;spacingLeft=4;spacingRight=4;overflow=hidden;rotatable=0;points=[[0,0.5],[1,0.5]];portConstraint=eastwest;" vertex="1" parent="z4HHx_3nLwUVMVr3qOZF-0">
          <mxGeometry y="26" width="160" height="26" as="geometry" />
        </mxCell>
        <mxCell id="z4HHx_3nLwUVMVr3qOZF-2" value="Phone Number" style="text;align=left;verticalAlign=top;spacingLeft=4;spacingRight=4;overflow=hidden;rotatable=0;points=[[0,0.5],[1,0.5]];portConstraint=eastwest;rounded=0;shadow=0;html=0;" vertex="1" parent="z4HHx_3nLwUVMVr3qOZF-0">
          <mxGeometry y="52" width="160" height="26" as="geometry" />
        </mxCell>
        <mxCell id="z4HHx_3nLwUVMVr3qOZF-3" value="Email Address" style="text;align=left;verticalAlign=top;spacingLeft=4;spacingRight=4;overflow=hidden;rotatable=0;points=[[0,0.5],[1,0.5]];portConstraint=eastwest;rounded=0;shadow=0;html=0;" vertex="1" parent="z4HHx_3nLwUVMVr3qOZF-0">
          <mxGeometry y="78" width="160" height="26" as="geometry" />
        </mxCell>
        <mxCell id="z4HHx_3nLwUVMVr3qOZF-4" value="" style="line;html=1;strokeWidth=1;align=left;verticalAlign=middle;spacingTop=-1;spacingLeft=3;spacingRight=3;rotatable=0;labelPosition=right;points=[];portConstraint=eastwest;" vertex="1" parent="z4HHx_3nLwUVMVr3qOZF-0">
          <mxGeometry y="104" width="160" height="8" as="geometry" />
        </mxCell>
        <mxCell id="z4HHx_3nLwUVMVr3qOZF-5" value="Purchase Parking Pass" style="text;align=left;verticalAlign=top;spacingLeft=4;spacingRight=4;overflow=hidden;rotatable=0;points=[[0,0.5],[1,0.5]];portConstraint=eastwest;" vertex="1" parent="z4HHx_3nLwUVMVr3qOZF-0">
          <mxGeometry y="112" width="160" height="26" as="geometry" />
        </mxCell>
        <mxCell id="z4HHx_3nLwUVMVr3qOZF-18" value="PostService" style="swimlane;fontStyle=2;align=center;verticalAlign=top;childLayout=stackLayout;horizontal=1;startSize=26;horizontalStack=0;resizeParent=1;resizeLast=0;collapsible=1;marginBottom=0;rounded=0;shadow=0;strokeWidth=1;" vertex="1" parent="sRyd3_VP2Nb4db6PmYxN-31">
          <mxGeometry x="100" y="210" width="160" height="139" as="geometry">
            <mxRectangle x="230" y="140" width="160" height="26" as="alternateBounds" />
          </mxGeometry>
        </mxCell>
        <mxCell id="z4HHx_3nLwUVMVr3qOZF-19" value="Name" style="text;align=left;verticalAlign=top;spacingLeft=4;spacingRight=4;overflow=hidden;rotatable=0;points=[[0,0.5],[1,0.5]];portConstraint=eastwest;" vertex="1" parent="z4HHx_3nLwUVMVr3qOZF-18">
          <mxGeometry y="26" width="160" height="26" as="geometry" />
        </mxCell>
        <mxCell id="z4HHx_3nLwUVMVr3qOZF-20" value="Phone Number" style="text;align=left;verticalAlign=top;spacingLeft=4;spacingRight=4;overflow=hidden;rotatable=0;points=[[0,0.5],[1,0.5]];portConstraint=eastwest;rounded=0;shadow=0;html=0;" vertex="1" parent="z4HHx_3nLwUVMVr3qOZF-18">
          <mxGeometry y="52" width="160" height="26" as="geometry" />
        </mxCell>
        <mxCell id="z4HHx_3nLwUVMVr3qOZF-21" value="Email Address" style="text;align=left;verticalAlign=top;spacingLeft=4;spacingRight=4;overflow=hidden;rotatable=0;points=[[0,0.5],[1,0.5]];portConstraint=eastwest;rounded=0;shadow=0;html=0;" vertex="1" parent="z4HHx_3nLwUVMVr3qOZF-18">
          <mxGeometry y="78" width="160" height="26" as="geometry" />
        </mxCell>
        <mxCell id="z4HHx_3nLwUVMVr3qOZF-22" value="" style="line;html=1;strokeWidth=1;align=left;verticalAlign=middle;spacingTop=-1;spacingLeft=3;spacingRight=3;rotatable=0;labelPosition=right;points=[];portConstraint=eastwest;" vertex="1" parent="z4HHx_3nLwUVMVr3qOZF-18">
          <mxGeometry y="104" width="160" height="8" as="geometry" />
        </mxCell>
        <mxCell id="sRyd3_VP2Nb4db6PmYxN-45" value="" style="endArrow=diamondThin;endFill=0;endSize=24;html=1;rounded=0;exitX=1;exitY=0.5;exitDx=0;exitDy=0;entryX=0;entryY=0.75;entryDx=0;entryDy=0;" edge="1" parent="WIyWlLk6GJQsqaUBKTNV-1" source="z4HHx_3nLwUVMVr3qOZF-38" target="z4HHx_3nLwUVMVr3qOZF-18">
          <mxGeometry width="160" relative="1" as="geometry">
            <mxPoint x="-350" y="520" as="sourcePoint" />
            <mxPoint x="-190" y="520" as="targetPoint" />
            <Array as="points">
              <mxPoint x="-160" y="960" />
            </Array>
          </mxGeometry>
        </mxCell>
        <mxCell id="sRyd3_VP2Nb4db6PmYxN-46" value="" style="endArrow=diamondThin;endFill=0;endSize=24;html=1;rounded=0;exitX=1;exitY=0.5;exitDx=0;exitDy=0;entryX=0;entryY=0.5;entryDx=0;entryDy=0;" edge="1" parent="WIyWlLk6GJQsqaUBKTNV-1" source="z4HHx_3nLwUVMVr3qOZF-50" target="z4HHx_3nLwUVMVr3qOZF-2">
          <mxGeometry width="160" relative="1" as="geometry">
            <mxPoint x="-310" y="740" as="sourcePoint" />
            <mxPoint x="-150" y="740" as="targetPoint" />
            <Array as="points">
              <mxPoint x="-160" y="670" />
            </Array>
          </mxGeometry>
        </mxCell>
        <mxCell id="sRyd3_VP2Nb4db6PmYxN-47" value="" style="endArrow=diamondThin;endFill=0;endSize=24;html=1;rounded=0;exitX=1;exitY=0.5;exitDx=0;exitDy=0;entryX=0.019;entryY=0.045;entryDx=0;entryDy=0;entryPerimeter=0;" edge="1" parent="WIyWlLk6GJQsqaUBKTNV-1" source="z4HHx_3nLwUVMVr3qOZF-50" target="z4HHx_3nLwUVMVr3qOZF-19">
          <mxGeometry width="160" relative="1" as="geometry">
            <mxPoint x="-360" y="640" as="sourcePoint" />
            <mxPoint x="110" y="685" as="targetPoint" />
            <Array as="points">
              <mxPoint x="-160" y="670" />
            </Array>
          </mxGeometry>
        </mxCell>
        <mxCell id="sRyd3_VP2Nb4db6PmYxN-48" value="" style="endArrow=diamondThin;endFill=0;endSize=24;html=1;rounded=0;exitX=1;exitY=0.5;exitDx=0;exitDy=0;entryX=0;entryY=0;entryDx=0;entryDy=0;" edge="1" parent="WIyWlLk6GJQsqaUBKTNV-1" source="z4HHx_3nLwUVMVr3qOZF-132" target="z4HHx_3nLwUVMVr3qOZF-0">
          <mxGeometry width="160" relative="1" as="geometry">
            <mxPoint x="-310" y="790" as="sourcePoint" />
            <mxPoint x="-150" y="790" as="targetPoint" />
          </mxGeometry>
        </mxCell>
        <mxCell id="sRyd3_VP2Nb4db6PmYxN-49" value="" style="endArrow=diamondThin;endFill=0;endSize=24;html=1;rounded=0;exitX=1;exitY=0.5;exitDx=0;exitDy=0;entryX=0;entryY=0.5;entryDx=0;entryDy=0;" edge="1" parent="WIyWlLk6GJQsqaUBKTNV-1" source="z4HHx_3nLwUVMVr3qOZF-145" target="z4HHx_3nLwUVMVr3qOZF-3">
          <mxGeometry width="160" relative="1" as="geometry">
            <mxPoint x="-210" y="790" as="sourcePoint" />
            <mxPoint x="-50" y="790" as="targetPoint" />
            <Array as="points">
              <mxPoint x="-160" y="810" />
            </Array>
          </mxGeometry>
        </mxCell>
        <mxCell id="sRyd3_VP2Nb4db6PmYxN-50" value="" style="endArrow=diamondThin;endFill=0;endSize=24;html=1;rounded=0;exitX=1;exitY=0.5;exitDx=0;exitDy=0;entryX=0.063;entryY=0.462;entryDx=0;entryDy=0;entryPerimeter=0;" edge="1" parent="WIyWlLk6GJQsqaUBKTNV-1" source="z4HHx_3nLwUVMVr3qOZF-145" target="z4HHx_3nLwUVMVr3qOZF-21">
          <mxGeometry width="160" relative="1" as="geometry">
            <mxPoint x="-200" y="820" as="sourcePoint" />
            <mxPoint x="-40" y="820" as="targetPoint" />
            <Array as="points">
              <mxPoint x="-160" y="810" />
            </Array>
          </mxGeometry>
        </mxCell>
        <mxCell id="sRyd3_VP2Nb4db6PmYxN-51" value="" style="endArrow=diamondThin;endFill=0;endSize=24;html=1;rounded=0;exitX=0.422;exitY=1.111;exitDx=0;exitDy=0;exitPerimeter=0;entryX=0;entryY=0.5;entryDx=0;entryDy=0;" edge="1" parent="WIyWlLk6GJQsqaUBKTNV-1" source="sRyd3_VP2Nb4db6PmYxN-6" target="z4HHx_3nLwUVMVr3qOZF-1">
          <mxGeometry width="160" relative="1" as="geometry">
            <mxPoint x="-160" y="500" as="sourcePoint" />
            <mxPoint y="500" as="targetPoint" />
            <Array as="points">
              <mxPoint x="-82" y="480" />
              <mxPoint x="-80" y="650" />
            </Array>
          </mxGeometry>
        </mxCell>
        <mxCell id="sRyd3_VP2Nb4db6PmYxN-52" value="" style="endArrow=diamondThin;endFill=0;endSize=24;html=1;rounded=0;exitX=0.415;exitY=1.111;exitDx=0;exitDy=0;exitPerimeter=0;entryX=0;entryY=0.5;entryDx=0;entryDy=0;" edge="1" parent="WIyWlLk6GJQsqaUBKTNV-1" source="sRyd3_VP2Nb4db6PmYxN-6" target="z4HHx_3nLwUVMVr3qOZF-20">
          <mxGeometry width="160" relative="1" as="geometry">
            <mxPoint x="180" y="640" as="sourcePoint" />
            <mxPoint x="340" y="640" as="targetPoint" />
            <Array as="points">
              <mxPoint x="-84" y="630" />
              <mxPoint x="-84" y="840" />
            </Array>
          </mxGeometry>
        </mxCell>
        <mxCell id="sRyd3_VP2Nb4db6PmYxN-53" value="" style="endArrow=diamondThin;endFill=0;endSize=24;html=1;rounded=0;exitX=0.422;exitY=1.063;exitDx=0;exitDy=0;exitPerimeter=0;entryX=-0.011;entryY=-0.031;entryDx=0;entryDy=0;entryPerimeter=0;" edge="1" parent="WIyWlLk6GJQsqaUBKTNV-1" source="sRyd3_VP2Nb4db6PmYxN-12" target="z4HHx_3nLwUVMVr3qOZF-1">
          <mxGeometry width="160" relative="1" as="geometry">
            <mxPoint x="100" y="500" as="sourcePoint" />
            <mxPoint x="260" y="500" as="targetPoint" />
            <Array as="points">
              <mxPoint x="120" y="480" />
              <mxPoint x="-40" y="480" />
              <mxPoint x="-40" y="620" />
            </Array>
          </mxGeometry>
        </mxCell>
        <mxCell id="sRyd3_VP2Nb4db6PmYxN-54" value="" style="endArrow=diamondThin;endFill=0;endSize=24;html=1;rounded=0;exitX=1;exitY=0.5;exitDx=0;exitDy=0;entryX=0;entryY=0;entryDx=0;entryDy=0;" edge="1" parent="WIyWlLk6GJQsqaUBKTNV-1" source="z4HHx_3nLwUVMVr3qOZF-2" target="z4HHx_3nLwUVMVr3qOZF-78">
          <mxGeometry width="160" relative="1" as="geometry">
            <mxPoint x="270" y="670" as="sourcePoint" />
            <mxPoint x="430" y="670" as="targetPoint" />
          </mxGeometry>
        </mxCell>
        <mxCell id="sRyd3_VP2Nb4db6PmYxN-55" value="" style="endArrow=diamondThin;endFill=0;endSize=24;html=1;rounded=0;exitX=1;exitY=0.5;exitDx=0;exitDy=0;entryX=0;entryY=0.25;entryDx=0;entryDy=0;" edge="1" parent="WIyWlLk6GJQsqaUBKTNV-1" source="z4HHx_3nLwUVMVr3qOZF-20" target="z4HHx_3nLwUVMVr3qOZF-76">
          <mxGeometry width="160" relative="1" as="geometry">
            <mxPoint x="420" y="820" as="sourcePoint" />
            <mxPoint x="580" y="820" as="targetPoint" />
          </mxGeometry>
        </mxCell>
        <mxCell id="sRyd3_VP2Nb4db6PmYxN-56" value="" style="endArrow=diamondThin;endFill=0;endSize=24;html=1;rounded=0;exitX=1;exitY=0.5;exitDx=0;exitDy=0;entryX=0;entryY=0.5;entryDx=0;entryDy=0;" edge="1" parent="WIyWlLk6GJQsqaUBKTNV-1" source="z4HHx_3nLwUVMVr3qOZF-21" target="z4HHx_3nLwUVMVr3qOZF-77">
          <mxGeometry width="160" relative="1" as="geometry">
            <mxPoint x="450" y="830" as="sourcePoint" />
            <mxPoint x="610" y="830" as="targetPoint" />
          </mxGeometry>
        </mxCell>
        <mxCell id="sRyd3_VP2Nb4db6PmYxN-57" value="" style="endArrow=diamondThin;endFill=0;endSize=24;html=1;rounded=0;exitX=1;exitY=0.5;exitDx=0;exitDy=0;entryX=0;entryY=0.75;entryDx=0;entryDy=0;" edge="1" parent="WIyWlLk6GJQsqaUBKTNV-1" source="z4HHx_3nLwUVMVr3qOZF-19" target="z4HHx_3nLwUVMVr3qOZF-78">
          <mxGeometry width="160" relative="1" as="geometry">
            <mxPoint x="480" y="870" as="sourcePoint" />
            <mxPoint x="700" y="770" as="targetPoint" />
          </mxGeometry>
        </mxCell>
        <mxCell id="sRyd3_VP2Nb4db6PmYxN-58" value="Actor" style="shape=umlActor;verticalLabelPosition=bottom;verticalAlign=top;html=1;" vertex="1" parent="WIyWlLk6GJQsqaUBKTNV-1">
          <mxGeometry x="-820" y="700" width="50" height="76" as="geometry" />
        </mxCell>
        <mxCell id="sRyd3_VP2Nb4db6PmYxN-65" value="" style="endArrow=classic;html=1;rounded=0;" edge="1" parent="WIyWlLk6GJQsqaUBKTNV-1">
          <mxGeometry width="50" height="50" relative="1" as="geometry">
            <mxPoint x="-760" y="720" as="sourcePoint" />
            <mxPoint x="-650" y="720" as="targetPoint" />
          </mxGeometry>
        </mxCell>
        <mxCell id="sRyd3_VP2Nb4db6PmYxN-66" value="" style="endArrow=classic;html=1;rounded=0;" edge="1" parent="WIyWlLk6GJQsqaUBKTNV-1">
          <mxGeometry width="50" height="50" relative="1" as="geometry">
            <mxPoint x="-760" y="720" as="sourcePoint" />
            <mxPoint x="-190" y="320" as="targetPoint" />
            <Array as="points">
              <mxPoint x="-760" y="320" />
            </Array>
          </mxGeometry>
        </mxCell>
        <mxCell id="sRyd3_VP2Nb4db6PmYxN-67" value="Data access layer" style="swimlane;whiteSpace=wrap;html=1;" vertex="1" parent="WIyWlLk6GJQsqaUBKTNV-1">
          <mxGeometry x="510" y="630" width="250" height="300" as="geometry" />
        </mxCell>
        <mxCell id="z4HHx_3nLwUVMVr3qOZF-78" value="«interface»&lt;br&gt;&lt;b&gt;UserRepository&lt;/b&gt;" style="html=1;whiteSpace=wrap;" vertex="1" parent="sRyd3_VP2Nb4db6PmYxN-67">
          <mxGeometry x="40" y="38" width="160" height="50" as="geometry" />
        </mxCell>
        <mxCell id="z4HHx_3nLwUVMVr3qOZF-76" value="«interface»&lt;br&gt;&lt;b&gt;CommentRepository&lt;/b&gt;" style="html=1;whiteSpace=wrap;" vertex="1" parent="sRyd3_VP2Nb4db6PmYxN-67">
          <mxGeometry x="40" y="113.99525423728812" width="160" height="50" as="geometry" />
        </mxCell>
        <mxCell id="z4HHx_3nLwUVMVr3qOZF-77" value="«interface»&lt;br&gt;&lt;b&gt;PostRepository&lt;/b&gt;" style="html=1;whiteSpace=wrap;" vertex="1" parent="sRyd3_VP2Nb4db6PmYxN-67">
          <mxGeometry x="40" y="190" width="160" height="50" as="geometry" />
        </mxCell>
      </root>
    </mxGraphModel>
  </diagram>
</mxfile>
